<?xml version="1.0" standalone="no"?>
<svg xmlns:xlink="http://www.w3.org/1999/xlink" id="wave" style="transform:rotate(0deg); transition: 0.3s" viewBox="0 0 1440 260" version="1.1" xmlns="http://www.w3.org/2000/svg"><defs><linearGradient id="sw-gradient-0" x1="0" x2="0" y1="1" y2="0"><stop stop-color="rgba(122, 21, 188, 1)" offset="0%"/><stop stop-color="rgba(122, 21, 188, 1)" offset="100%"/></linearGradient></defs><path style="transform:translate(0, 0px); opacity:1" fill="url(#sw-gradient-0)" d="M0,234L60,195C120,156,240,78,360,78C480,78,600,156,720,195C840,234,960,234,1080,212.3C1200,191,1320,147,1440,134.3C1560,121,1680,139,1800,151.7C1920,165,2040,173,2160,151.7C2280,130,2400,78,2520,78C2640,78,2760,130,2880,151.7C3000,173,3120,165,3240,151.7C3360,139,3480,121,3600,99.7C3720,78,3840,52,3960,43.3C4080,35,4200,43,4320,56.3C4440,69,4560,87,4680,104C4800,121,4920,139,5040,147.3C5160,156,5280,156,5400,151.7C5520,147,5640,139,5760,147.3C5880,156,6000,182,6120,160.3C6240,139,6360,69,6480,69.3C6600,69,6720,139,6840,169C6960,199,7080,191,7200,177.7C7320,165,7440,147,7560,117C7680,87,7800,43,7920,52C8040,61,8160,121,8280,147.3C8400,173,8520,165,8580,160.3L8640,156L8640,260L8580,260C8520,260,8400,260,8280,260C8160,260,8040,260,7920,260C7800,260,7680,260,7560,260C7440,260,7320,260,7200,260C7080,260,6960,260,6840,260C6720,260,6600,260,6480,260C6360,260,6240,260,6120,260C6000,260,5880,260,5760,260C5640,260,5520,260,5400,260C5280,260,5160,260,5040,260C4920,260,4800,260,4680,260C4560,260,4440,260,4320,260C4200,260,4080,260,3960,260C3840,260,3720,260,3600,260C3480,260,3360,260,3240,260C3120,260,3000,260,2880,260C2760,260,2640,260,2520,260C2400,260,2280,260,2160,260C2040,260,1920,260,1800,260C1680,260,1560,260,1440,260C1320,260,1200,260,1080,260C960,260,840,260,720,260C600,260,480,260,360,260C240,260,120,260,60,260L0,260Z"/></svg>