<?xml version="1.0" standalone="no"?>
<svg xmlns:xlink="http://www.w3.org/1999/xlink" id="wave" style="transform:rotate(180deg); transition: 0.3s" viewBox="0 0 1440 490" version="1.1" xmlns="http://www.w3.org/2000/svg"><defs><linearGradient id="sw-gradient-0" x1="0" x2="0" y1="1" y2="0"><stop stop-color="rgba(17, 24, 39, 1)" offset="0%"/><stop stop-color="rgba(17, 24, 39, 1)" offset="100%"/></linearGradient></defs><path style="transform:translate(0, 0px); opacity:1" fill="url(#sw-gradient-0)" d="M0,98L48,155.2C96,212,192,327,288,334.8C384,343,480,245,576,171.5C672,98,768,49,864,89.8C960,131,1056,261,1152,277.7C1248,294,1344,196,1440,155.2C1536,114,1632,131,1728,138.8C1824,147,1920,147,2016,171.5C2112,196,2208,245,2304,228.7C2400,212,2496,131,2592,130.7C2688,131,2784,212,2880,212.3C2976,212,3072,131,3168,106.2C3264,82,3360,114,3456,114.3C3552,114,3648,82,3744,114.3C3840,147,3936,245,4032,236.8C4128,229,4224,114,4320,81.7C4416,49,4512,98,4608,98C4704,98,4800,49,4896,49C4992,49,5088,98,5184,171.5C5280,245,5376,343,5472,375.7C5568,408,5664,376,5760,310.3C5856,245,5952,147,6048,89.8C6144,33,6240,16,6336,24.5C6432,33,6528,65,6624,106.2C6720,147,6816,196,6864,220.5L6912,245L6912,490L6864,490C6816,490,6720,490,6624,490C6528,490,6432,490,6336,490C6240,490,6144,490,6048,490C5952,490,5856,490,5760,490C5664,490,5568,490,5472,490C5376,490,5280,490,5184,490C5088,490,4992,490,4896,490C4800,490,4704,490,4608,490C4512,490,4416,490,4320,490C4224,490,4128,490,4032,490C3936,490,3840,490,3744,490C3648,490,3552,490,3456,490C3360,490,3264,490,3168,490C3072,490,2976,490,2880,490C2784,490,2688,490,2592,490C2496,490,2400,490,2304,490C2208,490,2112,490,2016,490C1920,490,1824,490,1728,490C1632,490,1536,490,1440,490C1344,490,1248,490,1152,490C1056,490,960,490,864,490C768,490,672,490,576,490C480,490,384,490,288,490C192,490,96,490,48,490L0,490Z"/></svg>