<?xml version="1.0" standalone="no"?>
<svg xmlns:xlink="http://www.w3.org/1999/xlink" id="wave" style="transform:rotate(0deg); transition: 0.3s" viewBox="0 0 1440 120" version="1.1" xmlns="http://www.w3.org/2000/svg"><defs><linearGradient id="sw-gradient-0" x1="0" x2="0" y1="1" y2="0"><stop stop-color="rgba(229, 231, 235, 1)" offset="0%"/><stop stop-color="rgba(229, 231, 235, 1)" offset="100%"/></linearGradient></defs><path style="transform:translate(0, 0px); opacity:1" fill="url(#sw-gradient-0)" d="M0,36L26.7,36C53.3,36,107,36,160,44C213.3,52,267,68,320,68C373.3,68,427,52,480,44C533.3,36,587,36,640,46C693.3,56,747,76,800,86C853.3,96,907,96,960,96C1013.3,96,1067,96,1120,84C1173.3,72,1227,48,1280,40C1333.3,32,1387,40,1440,48C1493.3,56,1547,64,1600,66C1653.3,68,1707,64,1760,66C1813.3,68,1867,76,1920,78C1973.3,80,2027,76,2080,68C2133.3,60,2187,48,2240,40C2293.3,32,2347,28,2400,40C2453.3,52,2507,80,2560,84C2613.3,88,2667,68,2720,56C2773.3,44,2827,40,2880,34C2933.3,28,2987,20,3040,16C3093.3,12,3147,12,3200,24C3253.3,36,3307,60,3360,74C3413.3,88,3467,92,3520,92C3573.3,92,3627,88,3680,84C3733.3,80,3787,76,3813,74L3840,72L3840,120L3813.3,120C3786.7,120,3733,120,3680,120C3626.7,120,3573,120,3520,120C3466.7,120,3413,120,3360,120C3306.7,120,3253,120,3200,120C3146.7,120,3093,120,3040,120C2986.7,120,2933,120,2880,120C2826.7,120,2773,120,2720,120C2666.7,120,2613,120,2560,120C2506.7,120,2453,120,2400,120C2346.7,120,2293,120,2240,120C2186.7,120,2133,120,2080,120C2026.7,120,1973,120,1920,120C1866.7,120,1813,120,1760,120C1706.7,120,1653,120,1600,120C1546.7,120,1493,120,1440,120C1386.7,120,1333,120,1280,120C1226.7,120,1173,120,1120,120C1066.7,120,1013,120,960,120C906.7,120,853,120,800,120C746.7,120,693,120,640,120C586.7,120,533,120,480,120C426.7,120,373,120,320,120C266.7,120,213,120,160,120C106.7,120,53,120,27,120L0,120Z"/></svg>